/* XPM */
static char *c5a12ff102f4432da1087deffbfab38esIwa4LJ25l0VtWXH[] = {
/* columns rows colors chars-per-pixel */
"32 32 2 1 ",
"  c black",
". c red",
/* pixels */
"                                ",
"                                ",
"                                ",
"                                ",
"      .................         ",
"      .                         ",
"      .                         ",
"      .                         ",
"      .                         ",
"      .                         ",
"      .                         ",
"      .                         ",
"      .                         ",
"      .                         ",
"      .................         ",
"      .                         ",
"      .                         ",
"      .                         ",
"      .                         ",
"      .                         ",
"      .                         ",
"      .                         ",
"      .                         ",
"      .                         ",
"      .................         ",
"                                ",
"                                ",
"                                ",
"                                ",
"                                ",
"                                ",
"                                "
};
