/* XPM */
static char *_9c758b884534ff1979ab0904633bf93SRxm6CP9sArRGFSP[] = {
/* columns rows colors chars-per-pixel */
"32 32 116 2 ",
"   c #100F10",
".  c #161515",
"X  c #191717",
"o  c #191718",
"O  c #1E1C1C",
"+  c #211E1E",
"@  c #252222",
"#  c #292626",
"$  c #2D2B2B",
"%  c #322E2E",
"&  c #3A2F2E",
"*  c #36302F",
"=  c #3C312E",
"-  c #342F30",
";  c #353131",
":  c #3A3434",
">  c #3D3836",
",  c #3C3738",
"<  c #3E3A3A",
"1  c #43332F",
"2  c #433534",
"3  c #4C3633",
"4  c #433A36",
"5  c #4C3937",
"6  c #433C3B",
"7  c #4B3D3B",
"8  c #503835",
"9  c #523D3C",
"0  c #46413E",
"q  c #4B433D",
"w  c #524433",
"e  c #55443B",
"r  c #453F41",
"t  c #563D40",
"y  c #474141",
"u  c #4B4442",
"i  c #4E4845",
"p  c #4F4949",
"a  c #544442",
"s  c #584644",
"d  c #534A42",
"f  c #5A4A46",
"g  c #554D4B",
"h  c #5C4D4C",
"j  c #545146",
"k  c #56514C",
"l  c #5B524D",
"z  c #5D5552",
"x  c #5F5A53",
"c  c #614D46",
"v  c #61534D",
"b  c #625D4C",
"n  c #625553",
"m  c #635A53",
"M  c #655B59",
"N  c #695D5A",
"B  c #636052",
"V  c #696354",
"C  c #6E6852",
"Z  c #66615A",
"A  c #6B625D",
"S  c #6D695B",
"D  c #70675F",
"F  c #736A5D",
"G  c #6C6360",
"H  c #6B6463",
"J  c #6F6563",
"K  c #6D6865",
"L  c #706763",
"P  c #726766",
"I  c #716A62",
"U  c #726A63",
"Y  c #756D63",
"T  c #746A64",
"R  c #786B66",
"E  c #786D66",
"W  c #716A68",
"Q  c #746B69",
"!  c #776E6C",
"~  c #7B6F69",
"^  c #796E6A",
"/  c #786E6C",
"(  c #767161",
")  c #7B7366",
"_  c #7C7367",
"`  c #7E7A66",
"'  c #767069",
"]  c #79706B",
"[  c #7C716B",
"{  c #7F7868",
"}  c #7F796C",
"|  c #7E7572",
" . c #807D6D",
".. c #807776",
"X. c #837B70",
"o. c #847972",
"O. c #857C72",
"+. c #847B79",
"@. c #8A7F78",
"#. c #868172",
"$. c #898171",
"%. c #8C8673",
"&. c #8A8174",
"*. c #8D8870",
"=. c #8D867B",
"-. c #928B7C",
";. c #938C7D",
":. c #968F7F",
">. c #96907B",
",. c #98907F",
"<. c #8D8681",
"1. c #938C80",
"2. c #948C88",
"3. c #979081",
"4. c #999087",
"5. c #A29C81",
/* pixels */
"V : H + Z m % - $ $ ' ! # -.$ k g x $ $ 2 &.$ % % 2 >.g ; z $ A ",
"&.d % $ 1 F 5.@ X.1 f [ % % % : z Y % ; O.L ] # @ N a T ; % , :.",
"A ; $ 6 = C $ , % , ; a $ I %.% 7 % o + 1 Z = 1 O % $ < @ & v L ",
"O ; T # 3 X @ 2 l z % % % g p % $ % A l $ ; : M t % = f G % # # ",
"e ; ; 6 > k $ & $ % @ % % : 4 % 0 % > T 4 $ % a % @ % $ 9 N $ -.",
"J % / z ~ 3.k , , f Z k e 3 # % O.d % % % } 6 : ; I | l $ , $ l ",
"N 8 2 2 3 O.m 6 , % E % = % 5 L E S % % 7 N J k = > u [ & D $ R ",
"= % + # ; % 2 % $ 7 l $ % : % : > $ $ $ , 2 q 4 % % % , , 4 % * ",
"$ h Z A $ % % 7 % : : $ A z q ; ; : ] I % ; $ ; D N 0 $ | Z z p ",
"M l g X.< 7 7 W u < % ; n { m , > > i > ; j % m q d g O 7 g g $ ",
"6 , n @ $ z : 2 % m  .d % 9 % , l > ; ; m M @ : % , x @ $ % $ ; ",
"L 4 $ ; I <.u ; # A P A $ % # x 0 , % # z X.x < $ m P 9 = _ < g ",
"A 7 , + @.M & 9 % ; $ : % > % ; # ; % : n N n ; k % $ % G H % u ",
"$ % O.; $ $ . ` l % # $ # $ =.I 7 <.2.A ; % $ $ 6 x : , V Y > 6 ",
"2 ] [ s $ 9 @ E { m A O ] f A ; l s +.@ F I $ | / O.% % 2 0 $ : ",
"% % f a % $ ; A E = % # 3 i > $ $ , ..+ O g ; ~ N $ : : % $ 4 k ",
"$.j , < & #.% 6 : $ ;.a % 2 % g *.; g ; c v , $ : 6 T ~ % u ; ( ",
"g Z # : O.L ] # 6 N a T # % , D p d % % = F ` ; Z = f [ , % $ u ",
"v % @ # 1 Z = 1 $ % $ ; 6 % v l A @ @ ; & j $ ; # $ ; a . I S : ",
"# $ g l $ $ , M t % = f G , ; $ ; # z , 2 6 # 7 L ~ ; 7 % u 6 ; ",
") % 0 z e , # a % ; % # 9 N $ -.n , < 6 > k $ & $ % $ # % < 4 $ ",
": : ; $ % } b d , I | l $ $ # l W % / z ~ 3.S ; * f #.S e 3 ; * ",
"0 6 % p s N J k = > J [ & D @ R N 8 3 9 3 O.m ; # % E % 2 % 9 A ",
"v $ $ $ , : 4 : % * ; % 6 4 % % % % O < % % 2 % % > D @ ; q % z ",
"# 2 ] z % , % # l N 0 # | +.4.p % q O.A $ r # a ; w = , A g m o ",
"( i 0 c 7 j % ] l 6 , % 2 G N % > J A o.# 7 a W Q A +   n k [ % ",
"k M 9 @ S M # 2 $ 6 ] , # % % % % % n # # Q * 2 % d  .d < 9 % ; ",
"u u # $ Z 1.Z % % m P 9 = _ @ A x % $ ; I <.L $ $ g P ~ % % y [ ",
"p $ % : u g a $ D % $ % G H % A y : ; % @.M 2 9 $ % # 3 @ f ; $ ",
"7 K z y % # ; % 6 ] 7 , V ,.d 6 % % O.% $ ; % B ; % y ; ; $ =.I ",
"J 7 g < u I $ M x O.% # 7 Z ; 1 9 ] [ s $ 2 # 6 { i q O ] f A , ",
"u ; .., ; A u ~ N $ ; $ + $ 1 l % % f a , % # A z % % $ 3 n 9 % "
};
