/* XPM */
static char *_f53d2b70fa44145fd5d4085b6cd406b9f7s3PQNPHJyoerT[] = {
/* columns rows colors chars-per-pixel */
"32 32 3 1 ",
"  c black",
". c #040101",
"X c #00E0FF",
/* pixels */
"                                ",
"                                ",
"                                ",
"                                ",
"      .................         ",
"      . XXXXXXXXXXXXXXX         ",
"      . X             X         ",
"      . X             X         ",
"      . X             X         ",
"      . X             X         ",
"      . X             X         ",
"      . X             X         ",
"      . X             X         ",
"      . X             X         ",
"      ..X............XX         ",
"      . XXX  XXXXXXXXX          ",
"      . XXXXXX                  ",
"      . X                       ",
"      . X                       ",
"      . X                       ",
"      . X                       ",
"      . X                       ",
"      . X                       ",
"      . X                       ",
"      ..X..............         ",
"        X                       ",
"        X                       ",
"                                ",
"                                ",
"                                ",
"                                ",
"                                "
};
