/* XPM */
static char *_a2a7aef9a6a4769cc38c4c99aff2a3bU3Y0dVKVxLWA9LHV[] = {
/* columns rows colors chars-per-pixel */
"32 32 143 2 ",
"   c #5D6E75",
".  c #576F78",
"X  c #546E7A",
"o  c #546E7C",
"O  c #54737F",
"+  c #616A6E",
"@  c #6A6F77",
"#  c #70787D",
"$  c #BD3507",
"%  c #BD3309",
"&  c #BD3609",
"*  c #BD360C",
"=  c #BF390C",
"-  c #C1350A",
";  c #C1380A",
":  c #C2380D",
">  c #D13B0E",
",  c #D83D0D",
"<  c #C23A11",
"1  c #D23E11",
"2  c #D83E10",
"3  c #DC3F13",
"4  c #BE441F",
"5  c #974E35",
"6  c #904F3D",
"7  c #BF4823",
"8  c #A8533C",
"9  c #D04013",
"0  c #D34216",
"q  c #D94010",
"w  c #D84115",
"e  c #DC4214",
"r  c #D94416",
"t  c #C74E26",
"y  c #C04E2B",
"u  c #C5502D",
"i  c #D85027",
"p  c #DA562B",
"a  c #DB572E",
"s  c #CA5634",
"d  c #C65F3C",
"f  c #DB5C36",
"g  c #B66046",
"h  c #9B756D",
"j  c #AC7868",
"k  c #C16A4B",
"l  c #D56B4B",
"z  c #D67358",
"x  c #E07654",
"c  c #E07A5A",
"v  c #E37F5F",
"b  c #C87960",
"n  c #CA8773",
"m  c #DA8A72",
"M  c #DA8C73",
"N  c #DB917A",
"B  c #DC927C",
"V  c #E48365",
"C  c #E98567",
"Z  c #E48568",
"A  c #E28A70",
"S  c #557480",
"D  c #5B7581",
"F  c #5C7581",
"G  c #787E86",
"H  c #6C808B",
"J  c #6E848E",
"K  c #738893",
"L  c #738F9B",
"P  c #778E9A",
"I  c #778E9D",
"U  c #788E9A",
"Y  c #7A919B",
"T  c #7A919D",
"R  c #7A939F",
"E  c #7D949D",
"W  c #7A94A0",
"Q  c #7D94A0",
"!  c #838A92",
"~  c #999B9D",
"^  c #8B9FA7",
"/  c #8E9FAA",
"(  c #8B9EAC",
")  c #CB9382",
"_  c #C6978A",
"`  c #C79A8C",
"'  c #DD9984",
"]  c #DFA08C",
"[  c #E4A38F",
"{  c #EBAB97",
"}  c #E2AB9A",
"|  c #E3AE9E",
" . c #E5AE9E",
".. c #F1AF99",
"X. c #CBB0AB",
"o. c #CDB2AB",
"O. c #CCBCB7",
"+. c #EEB4A3",
"@. c #AEBBC3",
"#. c #CFC9C6",
"$. c #CECDCD",
"%. c #C4CDD1",
"&. c #CDD3D2",
"*. c #CAD2D6",
"=. c #CCD3D7",
"-. c #CCD4D7",
";. c #CFD7DA",
":. c #D1D3D3",
">. c #D2D5D5",
",. c #D6D8DA",
"<. c #D1D8DC",
"1. c #E2CBC2",
"2. c #E7CAC0",
"3. c #E8D1CA",
"4. c #E1D6D1",
"5. c #E2DEDC",
"6. c #F9E3DC",
"7. c #F9E4DF",
"8. c #DCE1E3",
"9. c #E2E2E2",
"0. c #E3E3E6",
"q. c #E2E5E5",
"w. c #E4E6E6",
"e. c #E9E2E2",
"r. c #EEE5E3",
"t. c #E5E6E9",
"y. c #E7EAEA",
"u. c #E8EBEB",
"i. c #EAEAED",
"p. c #EAEDED",
"a. c #EEEEEE",
"s. c #F9E7E1",
"d. c #FCEBE3",
"f. c #EFF1F1",
"g. c gray94",
"h. c #F2F4F5",
"j. c #F9F5F3",
"k. c #FBF7F5",
"l. c #FCF6F4",
"z. c #FCF8F6",
"x. c #FBFBFB",
"c. c #FDF9F8",
"v. c white",
/* pixels */
"v.v.v.v.v.v.v.v.v.v.v.v.v.v.v.v.v.v.v.v.v.v.v.v.v.v.v.v.v.v.v.v.",
"v.v.v.v.v.v.v.v.v.v.v.v.v.v.v.v.v.v.v.v.v.v.v.v.v.v.v.6.c +.v.v.",
"v.v.v.v.v.v.v.v.v.v.x.v.x.v.v.v.v.v.v.v.v.v.v.v.v.x.h.p r a v.v.",
"v.v.v.v.v.v.v.v.v.v.v.x.v.v.x.v.v.v.v.v.v.v.v.k.a.u.2.2 0 : | v.",
"v.v.v.v.v.v.v.v.v.v.v.v.v.v.v.v.v.v.v.v.v.7.v } u.i.m ; * * u v.",
"v.v.v.v.v.v.v.v.v.v.v.v.v.v.v.v.v.v.v.k.V w q e.9.<.7 * * ' j.v.",
"v.v.v.v.v.v.v.v.v.v.v.v.v.v.v.v.v.x.f. .w w l >.$.X.& ' c.v.v.v.",
"v.v.v.v.v.v.v.v.v.v.v.v.v.v.v.7.r.y.p.x 9 - _ $.$.1.c.v.v.v.v.v.",
"v.v.v.v.v.v.v.v.v.v.v.v.v.s.Z i p.u.5.< * * #.w.v.v.v.v.v.v.v.v.",
"v.@.( ^ / K J H K h.v.v.{ w r A q.:.` % * ] v.v.v.v.v.v.v.v.v.v.",
"v.P T Y E D O O o -.g.p.f w > o.$.&.k B z.v.v.v.v.v.v.v.v.v.v.v.",
"v.T T T E D O + j u.u.3.> : 4 &.$.w.c.v.v.v.v.v.v.v.v.v.v.v.v.x.",
"v.U T T W @ 8 3 [ i.0.n & * b t.v.v.v.v.v.v.v.v.v.v.v.v.v.x.x.v.",
"v.T W ! g q e q 4.:.&.y * N l.v.v.v.v.v.v.v.v.v.v.v.v.v.v.v.v.v.",
"v.T h q C ..1 d -.:.O.M l.v.v.v.v.v.v.v.v.v.v.v.v.v.v.v.v.x.v.v.",
"v.T G , d.v.t ) $.,.v.v.v.v.v.v.v.v.v.v.v.v.v.v.v.v.v.v.v.v.v.v.",
"v.T L 5 s z $ ~ D ;.v.v.v.v.v.v.v.v.v.v.v.v.v.v.v.v.v.v.v.v.v.v.",
"v.T T # = 6   O . <.v.v.v.v.v.v.v.v.v.v.v.v.v.v.v.v.v.v.v.v.v.v.",
"v.U T P . S O O . <.v.v.v.v.v.v.v.v.v.v.v.v.v.v.v.v.v.v.v.v.v.v.",
"v.U T Q T D O O . <.v.v.v.v.v.v.v.v.v.v.v.v.v.v.v.v.v.v.v.v.v.v.",
"v.U T T Q D O . . <.v.v.v.v.v.v.v.v.v.v.v.v.v.v.v.v.v.v.v.v.v.v.",
"v.U T T E D o . . <.v.v.v.v.v.v.v.v.v.v.v.v.v.v.v.v.v.v.v.v.v.v.",
"v.U T T E D . o . <.v.v.v.v.v.v.v.v.v.v.v.v.v.v.v.v.v.v.v.v.v.v.",
"v.U T T E D O O . <.v.v.v.v.v.v.v.v.v.v.v.v.v.v.v.v.v.v.v.v.v.v.",
"v.U T T T F . . . <.v.v.v.v.v.v.v.v.v.v.v.v.v.v.v.v.v.v.v.v.v.v.",
"v.U T T T F . . . <.v.v.v.v.v.v.v.v.v.v.v.v.v.v.v.v.v.v.v.v.v.v.",
"v.T T T T D O O . <.v.v.v.v.v.v.v.v.v.v.v.v.v.v.v.v.v.v.v.v.v.v.",
"x.I T T E D O O . %.v.v.v.v.v.v.v.v.v.v.v.v.v.v.v.v.v.v.v.v.v.v.",
"Q T T T E D O O O . 8.v.v.v.v.v.v.v.v.v.x.v.v.v.v.v.v.v.v.v.v.v.",
"T T Y Y Q D O O O . *.v.v.v.v.v.v.v.v.v.v.x.v.v.v.v.v.v.x.v.x.v.",
"Y T T T E F O O O . =.v.v.v.v.v.v.v.v.v.v.v.v.v.v.v.v.v.x.v.v.v.",
"v.v.v.v.v.v.v.v.v.v.v.v.v.v.v.v.v.v.v.v.x.v.v.v.v.v.v.v.v.v.x.v."
};
