/* XPM */
static char *_924abc782594944bc647974b1d9114aX4vjn8MKEhsHiGWV[] = {
/* columns rows colors chars-per-pixel */
"32 32 7 1 ",
"  c None",
". c #231E2B",
"X c #C2751D",
"o c #CF8934",
"O c #E2B436",
"+ c #F5F38E",
"@ c #F7FEFF",
/* pixels */
"            @@@@@@@@            ",
"            @@@@@@@@            ",
"        @@@@........@@@@        ",
"        @@@@........@@@@        ",
"      @@....OOOO++++....@@      ",
"      @@....OOOO++++....@@      ",
"    @@..OOOOOOOOOOOO++++..@@    ",
"    @@..OOOOOOOOOOOO++++..@@    ",
"  @@..OOOOOOooooXXXXOOOO++..@@  ",
"  @@..OOOOOOooooXXXXOOOO++..@@  ",
"  @@..OOOOooooooooooXXOOOO..@@  ",
"  @@..OOOOooooooooooXXOOOO..@@  ",
"@@..OOOOooooooOO++ooooXXOOOO..@@",
"@@..OOOOooooooOO++ooooXXOOOO..@@",
"@@..OOOOooooOOOOOO++ooooOOOO..@@",
"@@..OOOOooooOOOOOO++ooooOOOO..@@",
"@@..OOOOooooOOOOOOOOooooOOOO..@@",
"@@..OOOOooooOOOOOOOOooooOOOO..@@",
"@@..OOOOooooXXOOOOooooooOOOO..@@",
"@@..OOOOooooXXOOOOooooooOOOO..@@",
"  @@..OO++ooooXXooooooOOOO..@@  ",
"  @@..OO++ooooXXooooooOOOO..@@  ",
"  @@..OOOO++ooooooooOOOOOO..@@  ",
"  @@..OOOO++ooooooooOOOOOO..@@  ",
"    @@..OOOO++++OOOOOOOO..@@    ",
"    @@..OOOO++++OOOOOOOO..@@    ",
"      @@....OOOOOOOO....@@      ",
"      @@....OOOOOOOO....@@      ",
"        @@@@........@@@@        ",
"        @@@@........@@@@        ",
"            @@@@@@@@            ",
"            @@@@@@@@            "
};
