/* XPM */
static char *_a44356400ae46add9f4ab3925a121dfkTM7EAu1fpDm3gUy[] = {
/* columns rows colors chars-per-pixel */
"32 32 3 1 ",
"  c black",
". c #040101",
"X c #00FF49",
/* pixels */
"                                ",
"                                ",
"                                ",
"                                ",
"      .................         ",
"      . ...............         ",
"      . XXXXXXXXXXXXXXXXX       ",
"      . X             .         ",
"      . X             .         ",
"      . X             .         ",
"      . X             .         ",
"      . X             .         ",
"      . X             .         ",
"      . X             .         ",
"      ..XXXXXXXX.......         ",
"      . X..  ...XXXXXXXXX       ",
"      . X.....                  ",
"      . X                       ",
"      . X                       ",
"      . X                       ",
"      . X                       ",
"      . X                       ",
"      . X                       ",
"      . XXXXX                   ",
"      .......XXXXXXXXXXXXX      ",
"        .                       ",
"        .                       ",
"                                ",
"                                ",
"                                ",
"                                ",
"                                "
};
